<?xml version="1.0" encoding="utf-8"?>
<!-- Generator: Adobe Illustrator 22.1.0, SVG Export Plug-In . SVG Version: 6.00 Build 0)  -->
<svg version="1.1" id="Layer_1" xmlns="http://www.w3.org/2000/svg" xmlns:xlink="http://www.w3.org/1999/xlink" x="0px" y="0px"
	 viewBox="0 0 1041.4 97.5" style="enable-background:new 0 0 1041.4 97.5;" xml:space="preserve">
<style type="text/css">
	.st0{fill:#4F2683;}
	.st1{fill:#807F83;}
	.st2{fill:#FFFFFF;}
</style>
<g>
	<path class="st0" d="M180.3,24.6c-0.9,1-2.2,1.6-3.7,1.6c-3.4,0-5.5-1.4-10.6-1.4c-8.8,0-15.7,4.8-15.7,13.5
		c0,17.8,27.3,14,27.3,26.8c0,5.8-4.2,8.6-9.5,8.6c-9.8,0-15.5-6.4-17.7-15.7h-2.4l3.3,17.9c1.1-1.2,2.5-1.7,3.8-1.7
		c2.8,0,6.4,2.2,12.8,2.2c10.2,0,17.9-5.7,17.9-15.4c0-19.3-27.8-14.2-27.8-26.7c0-4,2.8-6.9,7.9-6.9c8.1,0,12.6,5.7,14.6,12.5h2.4
		L180.3,24.6z M318.8,72.7v2.5h26.7v-2.5h-7.9v-26c0-9.3,4.8-18.3,13.8-18.3c5.1,0,8.2,2.9,8.2,10.4v33.9h-7.9v2.5h26v-2.5h-7.9
		V39.1c0-10-4.9-14.3-14.7-14.3c-8.2,0-14.2,4-17.3,10.8h-0.2v-11c-1.3,1.1-3.2,2.4-7.6,2.4c-2.9,0-10.6,0-10.6,0v2.5h8v43.2H318.8z
		 M221.3,66.7c-1.3,2.9-3.4,5.8-7.1,5.8c-3.8,0-5.4-2.4-5.4-8.3V29.5h12.3V27h-12.3V10.5h-2.1c-1.4,10.7-6.7,16.1-16.4,17.1v2l0,0h0
		h8.1v34.2c0,6.4,1.2,12.5,11.7,12.5c6.6,0,10.5-3,12.6-7l0.8-1.6L221.3,66.7z M316.2,31.8c0-4-2.9-7-8.4-7
		c-8.1,0-12.2,7.3-14.3,13.1h-0.1V24.4c-1.6,1.3-3.3,2.6-7.6,2.6c-3.1,0-11.2,0-11.2,0v2.5h8.6v43.2h-8.6v2.5h27.1v-2.5h-8.3V51.4
		c0-11.3,5.6-23.7,12.7-23.7c0.5,0,0.9,0.1,1.2,0.2c-1.2,1-2,2.5-2,4.2c0,3.1,2.4,5.4,5.4,5.4C313.9,37.5,316.2,34.9,316.2,31.8z
		 M139,61.4c-2.8,6.6-7.5,11.9-16.2,11.9c-12.9,0-14.8-9.8-14.8-24.9v-0.8h33.2c0-13.4-7.4-22.6-21.3-22.6
		c-15.1,0-23.3,11.7-23.3,25.7c0,14.7,7.7,25.7,23.2,25.7c9.6,0,17.4-3.6,21.5-14.3L139,61.4z M108.1,42.3
		c0.5-7.5,3.3-14.7,11.1-14.7c8.4,0,10.2,6.5,10.4,13.5c0,0.6,0,2.9,0,3.5H108C108,43.8,108,43,108.1,42.3z M268.4,61.4
		c-2.8,6.6-7.5,11.9-16.2,11.9c-12.9,0-14.8-9.8-14.8-24.9v-0.8h33.2c0-13.4-7.4-22.6-21.3-22.6C234.2,25,226,36.7,226,50.7
		c0,14.7,7.7,25.7,23.2,25.7c9.6,0,17.4-3.6,21.5-14.3L268.4,61.4z M237.5,42.3c0.5-7.5,3.3-14.7,11.1-14.7
		c8.4,0,10.2,6.5,10.4,13.5c0,0.6,0,2.9,0,3.5h-21.6C237.4,43.8,237.4,43,237.5,42.3z M53.2,24.4c-4.4,12.7-18.1,52-18.1,52h-2
		l-22.4-61L7,5.6H0V3.2h28.7v2.5h-9l2.8,8.2L38.1,57h0.2l13-37.5L46.2,5.6h-8.7V3.2h31.3v2.5H58.7l2.8,8L77.3,57h0.2l14.1-43.2
		L94,5.6h-9V3.2h20.3v2.5h-7.3l-3.2,9L74.7,76.3h-2.2L53.2,24.4z"/>
</g>
<g>
	<path class="st1" d="M531.6,76.5c0,0-2.2-1.2-5.4-1.2h-51.9v-2.4h9.5l0.1-8.6v-50l-0.1-8.6h-9.5V3.2h49.6c3.1,0,5.4-1.2,5.4-1.2
		l4.9,23.7h-2.7c-4.5-13.8-9.1-19.6-24.1-19.6h-12.3l-0.1,8.2v22.6h6.4c7.5,0,11.5-2.1,11.5-12.1v-3.1h2.8v34.3H513v-4
		c0-9-1.8-12.2-11.7-12.2H495v24.6l0.1,8.3h14c14.6,0,21.6-8.6,25.1-22h3L531.6,76.5z"/>
	<path class="st1" d="M550.6,72.8l0.1-8.8l0.1-27.9l-0.1-6.6h-8.1v-2.6c7.8,0,10.6,0,10.6,0c4.5,0,6.3-1.3,7.7-2.3v11.2h0.2
		c3.1-6.7,9.1-10.7,17.2-10.7c9.8,0,14.7,4.3,14.7,14.3V64l0.1,8.8h7.9v2.3h-26v-2.3h7.7l0.2-8.8V39.8c0-5.5-1-11.2-8-11.2
		c-9.3,0-14,9-14,18.3V64l0.1,8.8h7.8v2.3h-26.6v-2.3H550.6z"/>
	<path class="st1" d="M650.5,35.5c-2.2,0-4-1.8-4-4.1c0-1.3,0.6-2.5,1.7-3.3c-0.3-0.1-0.6-0.2-1-0.2c-3.4,0-5.1,3.1-5.6,3.9
		c1.3,2.7,2.3,4.5,2.3,8.4c0,9.4-6.1,16.5-17.3,16.5c-6.3,0-9.6-2.1-12-3.9c-1.6,0.9-3.8,2.4-3.8,5.3c0,4.5,4.7,4.8,9.1,5.1
		c2.2,0.1,10.3,0.3,12.9,0.5c10.4,0.6,18.3,4.1,18.3,15.8c0,14.1-13.4,17.9-24.2,17.9c-19,0-23.1-8.6-23.1-14
		c0-7.5,8.1-11.2,12.2-12.1c-5.3-1.3-9.1-5.3-9.1-11.1c0-4.8,3.2-7.7,5.8-9.2c-1.3-1.6-4-4.7-4-10.1c0-9.1,6.5-16.1,18-16.1
		c7.5,0,10.6,2.6,13.2,4.7c1.3-1.7,3.7-4.1,7.8-4.1c3.5,0,6.8,2.2,6.8,5.9C654.5,33.6,652.7,35.5,650.5,35.5z M627.6,73
		c-9.6-0.2-18.4,1.2-18.4,10.4c0,8.1,8.6,11.4,17.6,11.4c11.4,0,20.4-4.5,20.4-12C647.3,73.3,636,73.1,627.6,73z M626.5,27.2
		c-7.5,0-7.8,8.2-7.8,14.6c0,6.4,1.1,12.4,7.8,12.4c7.7,0,7.7-8.2,7.7-15.4C634.2,35.7,634.2,27.2,626.5,27.2z"/>
	<path class="st1" d="M677.1,36.9v27.2l0.1,8.7h8.2v2.4h-27.1v-2.4h8.8l0.1-8.7V36.9l-0.1-7.4h-8.9v-2.6c7.8,0,11.5,0,11.5,0
		c4.5,0,6.3-1.3,7.7-2.3L677.1,36.9z M671.8,15.8c3.2,0,5.9-2.7,5.9-5.9c0-3.3-2.8-6-5.9-6c-3.4,0-6,2.8-6,6
		C665.8,13.2,668.5,15.8,671.8,15.8z"/>
	<path class="st1" d="M699.2,72.8l0.1-8.8l0.1-27.9l-0.1-6.6h-8.1v-2.6c7.8,0,10.6,0,10.6,0c4.5,0,6.3-1.3,7.7-2.3v11.2h0.2
		C712.8,29,718.8,25,727,25c9.8,0,14.7,4.3,14.7,14.3V64l0.1,8.8h7.9v2.3h-26v-2.3h7.7l0.2-8.8V39.8c0-5.5-1-11.2-8-11.2
		c-9.3,0-14,9-14,18.3V64l0.1,8.8h7.8v2.3h-26.6v-2.3H699.2z"/>
	<path class="st1" d="M797.8,62c-4.1,10.6-11.9,14.3-21.5,14.3c-15.6,0-23.3-11.1-23.3-25.7c0-14.1,8.2-25.8,23.4-25.8
		c13.9,0,21.3,9.2,21.3,22.6h-33.3v0.8c0,15.1,1.9,25,14.8,25c8.7,0,13.4-5.3,16.2-12L797.8,62z M764.4,44.5H786c0-0.6,0-3.1,0-3.8
		c-0.2-6.9-2-13.5-10.4-13.5c-7.9,0-10.6,7.2-11.1,14.7C764.4,42.7,764.4,43.8,764.4,44.5z"/>
	<path class="st1" d="M848.6,62c-4.1,10.6-11.9,14.3-21.5,14.3c-15.6,0-23.3-11.1-23.3-25.7c0-14.1,8.2-25.8,23.4-25.8
		c13.9,0,21.3,9.2,21.3,22.6h-33.3v0.8c0,15.1,1.9,25,14.8,25c8.7,0,13.4-5.3,16.2-12L848.6,62z M815.3,44.5h21.6c0-0.6,0-3.1,0-3.8
		c-0.2-6.9-2-13.5-10.4-13.5c-7.9,0-10.6,7.2-11.1,14.7C815.3,42.7,815.3,43.8,815.3,44.5z"/>
	<path class="st1" d="M887.3,37.7c-3.1,0-5.4-2.4-5.4-5.4c0-1.7,0.8-3.3,2-4.3c-0.3-0.1-0.7-0.2-1.3-0.2c-7.1,0-12.8,12.3-12.8,23.9
		v12.4l0.1,8.6h8.3v2.6h-27.3v-2.6h8.6l0.1-8.6V29.4h-8.7v-2.6h11.3c4.4,0,6-1.3,7.7-2.8V38h0.1c2.1-5.8,6.2-13.3,14.5-13.3
		c5.4,0,8.6,3.1,8.6,7.2C893,35,890.4,37.7,887.3,37.7z"/>
	<path class="st1" d="M916.1,36.9v27.2l0.1,8.7h8.2v2.4h-27.1v-2.4h8.8l0.1-8.7V36.9l-0.1-7.4h-8.9v-2.6c7.8,0,11.5,0,11.5,0
		c4.5,0,6.3-1.3,7.7-2.3L916.1,36.9z M910.8,15.8c3.2,0,5.9-2.7,5.9-5.9c0-3.3-2.8-6-5.9-6c-3.4,0-6,2.8-6,6
		C904.8,13.2,907.5,15.8,910.8,15.8z"/>
	<path class="st1" d="M937.5,72.8l0.1-8.8l0.1-27.9l-0.1-6.6h-8.1v-2.6c7.8,0,10.6,0,10.6,0c4.5,0,6.3-1.3,7.7-2.3v11.2h0.2
		c3.1-6.7,9.1-10.7,17.2-10.7c9.8,0,14.7,4.3,14.7,14.3V64l0.1,8.8h7.9v2.3h-26v-2.3h7.7l0.2-8.8V39.8c0-5.5-1-11.2-8-11.2
		c-9.3,0-14,9-14,18.3V64l0.1,8.8h7.8v2.3h-26.6v-2.3H937.5z"/>
	<path class="st1" d="M1037.5,35.5c-2.2,0-4-1.8-4-4.1c0-1.3,0.6-2.5,1.7-3.3c-0.3-0.1-0.6-0.2-1-0.2c-3.4,0-5.1,3.1-5.6,3.9
		c1.3,2.7,2.3,4.5,2.3,8.4c0,9.4-6.1,16.5-17.3,16.5c-6.3,0-9.6-2.1-12-3.9c-1.6,0.9-3.8,2.4-3.8,5.3c0,4.5,4.7,4.8,9.1,5.1
		c2.2,0.1,10.3,0.3,12.9,0.5c10.4,0.6,18.3,4.1,18.3,15.8c0,14.1-13.4,17.9-24.2,17.9c-19,0-23.1-8.6-23.1-14
		c0-7.5,8.1-11.2,12.2-12.1c-5.3-1.3-9.1-5.3-9.1-11.1c0-4.8,3.2-7.7,5.8-9.2c-1.3-1.6-4-4.7-4-10.1c0-9.1,6.5-16.1,18-16.1
		c7.5,0,10.6,2.6,13.2,4.7c1.3-1.7,3.7-4.1,7.8-4.1c3.5,0,6.8,2.2,6.8,5.9C1041.4,33.6,1039.7,35.5,1037.5,35.5z M1014.6,73
		c-9.6-0.2-18.4,1.2-18.4,10.4c0,8.1,8.6,11.4,17.6,11.4c11.4,0,20.4-4.5,20.4-12C1034.3,73.3,1023,73.1,1014.6,73z M1013.5,27.2
		c-7.5,0-7.8,8.2-7.8,14.6c0,6.4,1.1,12.4,7.8,12.4c7.7,0,7.7-8.2,7.7-15.4C1021.1,35.7,1021.1,27.2,1013.5,27.2z"/>
</g>
<g>
	<path class="st2" d="M453,55.6c-4.9,11.5-14.5,20.2-28.2,25.7l-0.7,0.3l-0.7-0.3c-13.7-5.4-23.3-14.1-28.2-25.7
		c-4-9.3-3.8-17.1-3.8-21.4l0-29.8c7.6-2.7,19.3-4.4,32.5-4.4c13.4,0,25.3,1.7,32.9,4.4l0,29.3C456.8,37.9,457,46.3,453,55.6z"/>
	<path class="st0" d="M453,55.6c-4.9,11.5-14.5,20.2-28.2,25.7l-0.7,0.3l-0.7-0.3c-13.7-5.4-23.3-14.1-28.2-25.7
		c-4-9.3-3.8-17.1-3.8-21.4l0-29.8c7.6-2.7,19.3-4.4,32.5-4.4c13.4,0,25.3,1.7,32.9,4.4l0,29.3C456.8,37.9,457,46.3,453,55.6z
		 M423.9,30.3c-0.5-1.2-1.7-1.5-3.3-1.5c-1.3,0-3,0.2-4.8,0.2v8.6c3.3-0.3,6.9-0.7,8.1,1h0.2c1.1-1.7,4.8-1.3,8.1-1V29
		c-1.8,0-3.4-0.2-4.8-0.2c-1.6,0-2.8,0.4-3.3,1.5H423.9z M427.4,31.9h-2.8l-0.2,1.1h0.3l0.2-0.4h1.8l-1.8,3.8l0.3,0.1l2.2-4.4l0,0
		L427.4,31.9z M418.9,32.4h0.5V32l-0.1,0c-0.1,0-0.3,0-0.4,0c-0.2,0-0.5,0-0.7,0c-0.2,0-0.4,0-0.7,0c-0.1,0-0.3,0-0.4,0l-0.1,0v0.4
		h0.5c0.3,0,0.3,0,0.3,0.4v1.7c0,0.3,0,0.4-0.6,0.4H417v0.4l0.1,0c0.2,0,0.3,0,0.5,0c0.2,0,0.4,0,0.6,0c0.3,0,0.5,0,0.8,0
		c0.1,0,0.2,0,0.3,0l0.1,0v-0.4h-0.2c-0.5,0-0.6,0-0.6-0.4v-1.7C418.5,32.4,418.6,32.4,418.9,32.4z M423.3,34c0,0.8-0.6,1.3-1.6,1.3
		c-0.9,0-1.5-0.5-1.5-1.1c0-0.7,0.5-1,0.9-1.2c-0.5-0.3-0.8-0.7-0.8-1.2c0-0.5,0.4-1.2,1.5-1.2c0.9,0,1.3,0.5,1.3,1
		c0,0.5-0.3,0.9-0.9,1.1C422.9,33.1,423.3,33.4,423.3,34z M422,32.6c0.3-0.2,0.7-0.5,0.7-0.9c0-0.7-0.6-0.7-0.8-0.7
		c-0.5,0-0.9,0.3-0.9,0.6C421,32,421.3,32.3,422,32.6z M422.7,34.3c0-0.4-0.2-0.7-1.1-1.1c-0.4,0.2-0.7,0.5-0.7,0.9
		c0,0.7,0.6,0.8,1,0.8C422.3,34.9,422.7,34.7,422.7,34.3z M431.1,34c0,0.8-0.6,1.3-1.6,1.3c-0.9,0-1.5-0.5-1.5-1.1
		c0-0.7,0.5-1,0.9-1.2c-0.5-0.3-0.8-0.7-0.8-1.2c0-0.5,0.4-1.2,1.5-1.2c0.9,0,1.3,0.5,1.3,1c0,0.5-0.3,0.9-0.9,1.1
		C430.7,33.1,431.1,33.4,431.1,34z M429.8,32.6c0.3-0.2,0.7-0.5,0.7-0.9c0-0.7-0.6-0.7-0.8-0.7c-0.5,0-0.9,0.3-0.9,0.6
		C428.8,32,429.1,32.3,429.8,32.6z M430.5,34.3c0-0.4-0.2-0.7-1.1-1.1c-0.4,0.2-0.7,0.5-0.7,0.9c0,0.7,0.6,0.8,1,0.8
		C430.1,34.9,430.5,34.7,430.5,34.3z M393.9,24.3l0,9.4c0,5.7-0.1,19.5,10.2,31.5l20-16.3L393.9,24.3L393.9,24.3z M454.2,24.3
		L454.2,24.3l-30.2,24.6l20,16.3c10.3-12,10.2-25.8,10.2-31.5L454.2,24.3z M454.2,20.7l-7,2.3l0,0c0.9-0.6,1.6-1.3,2.3-2.9
		c0.4-0.8,0.7-1.4,1.2-1.9c0.4-0.4,0.9-0.7,1.3-0.8c-0.9-0.2-1.8-0.1-2.7,0.3c-1.6,0.7-2.4,2-4,2.3l3.4-6.1l-6.2,4l0,0
		c0.7-0.8,1.2-1.7,1.5-3.4c0.1-0.9,0.4-1.6,0.7-2.1c0.3-0.5,0.7-0.9,1-1.1c-0.9,0-1.7,0.3-2.5,1c-1.4,1.1-1.9,2.5-3.4,3.2l1.8-6.8
		l-5,5.4l0,0c0.5-0.9,0.8-1.9,0.6-3.7c-0.1-0.9,0-1.6,0.1-2.2c0.2-0.6,0.5-1,0.7-1.3c-0.9,0.2-1.6,0.6-2.3,1.4
		c-1.1,1.4-1.2,3.1-2.5,4.1l0.1-7.1l-3.5,6.4c0.2-1,0.2-2-0.4-3.6c-0.3-0.9-0.4-1.6-0.4-2.2c0-0.6,0.2-1.1,0.4-1.5
		c-0.8,0.4-1.4,1-1.8,2c-0.7,1.6-0.4,3.2-1.5,4.6l-1.7-6.9l-1.8,7.2h0c0-1.1-0.2-2-1.3-3.5c-0.5-0.8-0.8-1.4-1-2
		c-0.1-0.6-0.1-1.2,0-1.5c-0.7,0.6-1.1,1.4-1.3,2.4c-0.3,1.7,0.4,3.2-0.2,4.7l-3.4-6.2l0.1,7.3c-0.3-1-0.8-1.9-2.1-3
		c-0.7-0.6-1.1-1.2-1.4-1.7c-0.3-0.6-0.4-1.1-0.4-1.5c-0.5,0.7-0.7,1.6-0.6,2.6c0.2,1.7,1.1,2.9,0.9,4.7l-4.8-5.2l1.8,7
		c-0.5-0.8-1.2-1.6-2.7-2.3c-0.8-0.4-1.4-0.8-1.8-1.3c-0.4-0.5-0.6-1-0.7-1.3c-0.3,0.8-0.3,1.7,0.1,2.7c0.6,1.6,1.8,2.6,2.1,4.4
		l-6-3.9l3.5,6.2c-0.7-0.7-1.5-1.2-3.1-1.5c-0.9-0.2-1.6-0.5-2.1-0.8c-0.5-0.4-0.8-0.8-1-1.1c-0.1,0.9,0.1,1.7,0.7,2.6
		c1,1.5,2.6,2,3.1,3.7l-6.8-2.3l3.4,3.6h53.3L454.2,20.7z M430.9,65.4c0.1,0,0.2-0.3,0.2-0.3c-0.1,0-0.3,0-0.6,0
		c-0.3,0-0.6-0.2-0.6-0.5c0-0.4,0.1-0.7,0.5-0.9c0.1-0.1,0.4-0.2,0.5-0.4c0-0.2,0.1-0.5,0.2-0.7c0.1-0.3,0.3-0.5,0.5-0.9
		c0.1-0.2,0.2-0.5,0.1-0.6c-0.3,0.2-1.1,0.9-1.6,0.8c-0.2,0-0.2,0-0.4,0c-0.4,0.1-0.8,0.2-1.1-0.2c-0.2,0-0.5,0.4-0.6,0.6
		c-0.2,0.2-0.3,0.4-0.6,0.6c-0.2,0.1-0.6,0.3-0.8,0.2c-0.3-0.1-0.3-0.6-0.3-0.8c0-0.3,0.2-1.2,0.5-2c0-0.1,0.3-0.7,0.3-0.9
		c0,0,0-0.1-0.1-0.1c-0.1,0-0.4,0.2-0.6,0.2c-0.2,0-0.4,0-0.5-0.3c-0.2-0.4-0.2-1.4-0.3-1.7c-0.2,0.1-0.4,0.1-0.6-0.2
		c-0.2-0.3-0.4-0.6-0.5-0.9c0-0.1-0.2-0.5-0.3-0.7c-0.1,0.3-0.2,0.5-0.3,0.8c-0.1,0.2-0.2,0.5-0.2,0.7c-0.1,0.2-0.2,0.4-0.4,0.4
		c-0.1,0-0.2,0-0.3-0.1c-0.1,0-0.1,0.1-0.1,0.2c-0.1,0.2-0.1,0.4-0.1,0.6c-0.1,0.4-0.2,0.9-0.6,1c-0.2,0-0.3,0-0.5-0.1
		c-0.4-0.2-0.3,0.2-0.2,0.5c0.1,0.2,0.3,0.6,0.4,1.1c0.2,0.5,0.5,1.5,0.5,1.8c0,0.3-0.4,0.6-0.9,0.3c-0.1-0.1-0.4-0.4-0.6-0.5
		c-0.3-0.1-0.6-0.3-0.8-0.5c-0.1,0-0.4,0.1-0.5,0.2c-0.9,0.3-1.5,0.1-1.8-0.1c-0.2-0.1-0.5-0.2-0.6-0.4c0-0.1-0.1-0.1-0.2-0.1
		c-0.1,0-0.1,0.2-0.1,0.3c0,0.2,0.1,0.5,0.2,0.7c0.1,0.2,0.2,0.3,0.3,0.5c0.1,0.2,0.1,0.3-0.1,0.4c0,0.2,0.2,0.2,0.3,0.3
		c0.1,0.1,0.3,0.2,0.4,0.4c0.1,0.2,0.2,0.3,0.2,0.5c0,0.2-0.2,0.4-0.6,0.4c-0.1,0.3,0.3,0.6,0.5,0.7c0.1,0.1,0.3,0.1,0.4,0.2
		c0.1,0.1,0.3,0.2,0.3,0.3c0.2,0.1,0.4,0,0.7,0c0.2,0,0.4,0.2,0.5,0.3c0.1,0.1,0.2,0.3,0.2,0.5c0,0.7-1.2,0.9-1.2,0.9
		c0.3,0.4,0.9,0.5,1.5,0.5c0.3,0,0.4-0.1,0.7,0c0.2,0,0.3,0.2,0.3,0.3c0.1,0.1,0.3,0.1,0.5,0.1c0.1,0,0.2,0,0.3-0.1
		c0.2-0.1,1.2-0.6,1.5-0.6l-0.1,4.2h1.3c0,0-0.1-3.5-0.2-4.2c0.2,0,0.3,0.1,0.5,0.3c0.2,0.1,0.9,0.4,1.2,0.3
		c0.1-0.3,0.6-0.2,1.2-0.1c0.2,0,0.8,0,0.9-0.1c0.3-0.1,0.6-0.2,0.8-0.5c-0.6-0.1-1-0.4-1.1-0.7c-0.1-0.2-0.1-0.5,0.1-0.6
		c0.1-0.1,0.1,0,0.2-0.1c0.1-0.1,0.2-0.3,0.4-0.4c0.2-0.1,0.8,0,0.9-0.2c-0.1-0.1,0-0.3,0.1-0.3c0.1-0.1,0.2-0.1,0.3-0.1
		C430.5,65.7,430.8,65.5,430.9,65.4z M406.6,56.6c4.4,0,7.9-3.6,7.9-8c0-4.4-3.5-8-7.9-8c-4.4,0-7.9,3.6-7.9,8
		C398.7,53.1,402.3,56.6,406.6,56.6z M411.5,45.2c0,0.2-0.1,1-0.2,1.1c-0.1,0-0.3,0-0.5,0c-0.1,0-0.1,0-0.2,0.1
		c-0.2,0.3-0.4,0.6-0.6,1c0,0.5-0.1,0.8-0.1,1.4c0,0.2-0.1,0.3-0.2,0.6c-0.2,0.2-0.6,0.6-0.7,0.7c-0.2,0.1-0.1,0.4,0.1,0.3
		c0.1,0,0.6-0.2,0.7-0.3c0.3-0.1,0.6-0.3,1,0c0.2,0.2,1,0.7,1.2,0.9c0.2,0.2,0.3,0.3,0.4,0.5c0.2,0.4,0.2,0.9,0.2,1
		c-0.1,0.1-1,0-1.2,0c-0.1-0.1,0-0.6-0.2-0.8c-0.1-0.1-0.2-0.2-0.4-0.3c-0.3-0.2-0.5-0.2-0.7-0.1c-0.3,0.1-0.9,0.5-1.3,0.8
		c-0.1,0.6-0.8,1.3-1.1,1.7c-0.8,0.6-1.6,1.1-2.4,1.6c-0.9-0.2-2.4-0.9-3-1.6c0.8-0.9,1.5-1.4,2.1-2c0.2-0.7,1.2-2.6,1-2.8
		c-0.6-0.7-1.7-2.6-1.2-3.1c-1,0.5-2.7,0.9-3.7,0.7c-0.3,0-0.4-0.8,0.1-0.8c1.6,0,3.1-0.5,3.1-1.3c0-0.5-0.6-0.8-0.7-1
		c-0.2-0.2,0.2-0.5,0.6-0.4c0.4,0.1,0.8,0.4,1,0.9c0.1,0.2,0.1,0.4,0.3,0.4c0.3,0,1.6-0.7,1.5-1.7c-0.1-0.3-0.3-0.5-0.5-0.7
		c-0.2-0.1-0.2-0.2-0.2-0.3c0-0.1,0.3-0.2,0.5-0.2c0.4,0,1,0.5,1.2,1c0.1,0.5,0,1.4-1.3,2.3c-0.1,0.1-0.2,0.2,0,0.2
		c0.5-0.1,2.3-0.6,2.5-0.6c0.1,0.2,0.3,0.6,0.2,0.8c-0.1,0.2-1.2,0.8-1.8,1.3c0.8,0.5,1.2,1,1.4,1.2c0.1,0.2,0.3,0.5,0.4,0.6
		c0.1,0.1,0.3,0.1,0.3,0c0.1-0.4,0.3-1.2,0.4-1.3c0.1-0.1,0.9-1.4,1-1.6c0.2-0.2,0.4-0.3,0.7-0.3C410.8,45.3,411.4,45.2,411.5,45.2z
		 M441.4,56.6c4.4,0,7.9-3.6,7.9-8c0-4.4-3.5-8-7.9-8c-4.4,0-7.9,3.6-7.9,8C433.5,53.1,437,56.6,441.4,56.6z M445,43.4
		c0.2-0.1,1.2-0.4,1.5,0c-0.6,0.3-1.2,0.8-1.6,1.3c-0.5-0.4-1.8-0.8-2.3-0.7c-0.1-0.7-0.3-1.4-0.6-2c0.6-0.1,1.1,0.7,1.2,0.9
		c0.1,0.1,0.1,0.1,0.2,0.1c0,0,0.6-0.4,0.7-0.4c0.1-0.1,0.2,0,0.2,0.1c0.1,0.1,0.3,0.8,0.3,0.8C444.8,43.4,444.9,43.4,445,43.4z
		 M442.2,44.4c0.1,0,0.2,0,0.3,0c0.7,0,1.9,0.4,2.2,0.8c0.2,0.4,0.3,1.5,0.3,1.7c-0.3,0.9-1.1,2.4-1.1,3.1c0,0.6,0.1,1.3,0.8,2.1
		c0.4,0.4,1,1.1,1.4,1.5c-0.7,0.7-1.7,1.3-2.3,1.5c-0.3-0.3-2-1.6-2.5-1.8c-0.7-0.5-1.3-1.1-1.4-1.8c-0.4-0.1-2.1-0.5-2.7-0.6
		c-0.5-0.1-0.7-0.1-0.9,0.2c-0.2,0.3-0.4,0.6-0.6,0.6c-0.3,0-0.3-0.4-0.4-0.8c-0.1-0.3-0.2-0.4-0.4-0.6c-0.3-0.2-0.5-0.4-0.4-0.5
		c0-0.1,0.2-0.2,0.7-0.4c0.2-0.1,0.4-0.1,0.5-0.3c0.2-0.2,0.4-0.7,0.7-0.7c0.2,0,0.3,0.4,0.4,0.7c0.1,0.3,0.1,0.5,0.6,0.5
		c0.8,0.1,2.2,0.3,2.4-0.1c-0.9-0.1-1.3-0.7-1.5-1c-0.1-0.4-0.5-2.2-0.5-2.3c0-0.2-0.3-0.3-0.7-0.5c-0.3-0.1-0.5-0.2-0.5-0.4
		c0-0.2,0.3-0.3,0.6-0.5c0.2-0.1,0.3-0.2,0.5-0.5c0-0.1,0.2-0.6,0.4-0.6c0.3,0,0.3,0.3,0.5,0.5c0.1,0.2,0.2,0.3,0.6,0.3
		c0.2,0,0.7,0,0.7,0.2c0.1,0.2-0.1,0.3-0.3,0.5c-0.4,0.4-0.5,0.5-0.5,0.8c0,0.3,0.5,1.6,0.9,2c0.1,0.1,0.9,0.3,1.6,0.2
		c0.3,0,0.8-1,0.8-1.3c0,0-1-0.2-1.2-0.2c-0.3-0.1-0.4-1.2-0.4-1.2C440.7,45.1,442,44.4,442.2,44.4z M446.8,52.7
		c-1.1-1-1.6-1.8-1.6-2.9c0-1.5,1.1-2.5,1.2-3.7c0-0.4-0.1-0.8-0.2-1.2c1,0.1,2,1.6,1.1,2.8c0.6,0,1,0.7,0.5,1.3
		c-0.1-0.2-0.3-0.3-0.5-0.3c-0.6,0-1,0.6-1,1.3c0,0.6,0.4,1.3,1.1,2C447.1,52.3,447,52.5,446.8,52.7z"/>
</g>
</svg>
