<?xml version="1.0" encoding="UTF-8" standalone="no"?>
<!-- Created with Inkscape (http://www.inkscape.org/) -->

<svg
   xmlns:dc="http://purl.org/dc/elements/1.1/"
   xmlns:cc="http://creativecommons.org/ns#"
   xmlns:rdf="http://www.w3.org/1999/02/22-rdf-syntax-ns#"
   xmlns:svg="http://www.w3.org/2000/svg"
   xmlns="http://www.w3.org/2000/svg"
   xmlns:sodipodi="http://sodipodi.sourceforge.net/DTD/sodipodi-0.dtd"
   xmlns:inkscape="http://www.inkscape.org/namespaces/inkscape"
   id="svg3597"
   sodipodi:docname="monkeywrench.svg"
   viewBox="0 0 372.76528 403.36587"
   sodipodi:version="0.32"
   version="1.0"
   inkscape:output_extension="org.inkscape.output.svg.inkscape"
   inkscape:version="0.92.1 r15371"
   width="397.6163"
   height="430.25693">
  <defs
     id="defs22">
    <linearGradient
       id="linearGradient3478">
      <stop
         offset="0"
         style="stop-color:#000000;stop-opacity:0"
         id="stop3480" />
      <stop
         offset=".66792"
         style="stop-color:#000000;stop-opacity:0"
         id="stop3486" />
      <stop
         offset="1"
         style="stop-color:#000000;stop-opacity:.24561"
         id="stop3482" />
    </linearGradient>
    <clipPath
       clipPathUnits="userSpaceOnUse"
       id="clipPath5223">
      <path
         d="m 428.5,319.86 -4.78,-5.88 0.04,-6 1.51,-0.89 0.19,-60.29 c -13.25,1.75 -23.39,7.8 -30.04,19 l -32.05,53.82 -14.66,19.78 -3.61,8.22 35.27,0.11"
         style="fill:none;stroke:#000000;stroke-width:2"
         sodipodi:nodetypes="cccccccccc"
         id="path5225"
         inkscape:connector-curvature="0" />
    </clipPath>
    <clipPath
       clipPathUnits="userSpaceOnUse"
       id="clipPath5195">
      <path
         d="m 508.97,308.78 c -1.13,10.2 -13.13,13.36 -21.88,13.25 -33.49,-0.12 -66.98,-0.24 -100.47,-0.34 6.31,36.53 13.16,75.73 -0.93,111.31 -10.14,25.47 -23.96,49.21 -35.29,74.16 -35.93,74.09 -72.71,147.71 -107.93,222.15 -6.55,18.9 9.12,41.07 28.94,41.53 13.69,1.08 27.79,-7.81 32.47,-20.53 -7.47,15.77 -28.78,23.16 -44.13,14.35 -16.33,-8.45 -22.34,-31.72 -11.28,-46.63 10,-15.17 33.62,-18.8 47.22,-6.15 9.43,7.97 13.84,21.59 10.06,33.59 43.16,-101.38 85.52,-203.16 129.2,-304.29 18.05,-35.52 54.23,-55.71 84.7,-79.24 9.57,-6.76 19.93,-14.87 21.17,-27.51 3.47,-22.42 -3.12,-45.6 -14.16,-65.15 -4.38,-7.23 -10.07,-13.9 -17.47,-18.12 -0.08,19.2 -0.15,38.41 -0.22,57.62 z m -77.53,30.84 c 7.19,0.88 16.19,-1.98 22.03,3.41 6.31,8.03 1.7,18.99 3.02,28.25 -0.2,10.47 1.11,21.31 -1.05,31.56 -4.36,8.78 -15.81,6.06 -23.69,6.04 -9.13,-0.41 -19.13,1.96 -27.75,-1.66 -8.16,-5.95 -4.03,-17.51 -4.81,-25.97 0.41,-11.79 -1.49,-24.05 1.15,-35.56 3.65,-7.69 13.1,-5.84 19.97,-5.89 3.71,-0.03 7.42,-0.14 11.13,-0.18 z"
         style="fill:none;stroke:#000000;stroke-width:2"
         id="path5197"
         inkscape:connector-curvature="0" />
    </clipPath>
    <clipPath
       clipPathUnits="userSpaceOnUse"
       id="clipPath5106">
      <path
         d="M 87.043,306.39 C 73.125,334.73 -14.977,520.54 -18.017,526.6 -33.165,556.91 10.272,584.18 29.465,540.74 48.657,497.31 110.47,349.71 121.39,321.54 132.98,291.62 100.93,278.1 87.043,306.39 Z"
         style="fill:none;stroke:#000000;stroke-width:1px"
         sodipodi:nodetypes="csszz"
         id="path5108"
         inkscape:connector-curvature="0" />
    </clipPath>
    <clipPath
       clipPathUnits="userSpaceOnUse"
       id="clipPath5130">
      <path
         d="m 513.18,245.01 -0.2,63.78 c -0.67,6.56 -10.05,9.47 -19.68,9.22 l -103.38,-0.32 c 5.49,37.16 17.33,80.16 -4.89,125.7 L 250.29,719.53 c -2.98,6.12 -5.22,11.88 -5.24,18.74 -0.07,20.13 16.19,36.52 36.32,36.58 14.78,0.05 27.9,-8.58 33.32,-21.36 L 442.91,450.67 c 19.9,-46.99 66.27,-65.53 100.96,-96.94 22.96,-20.78 3.38,-98.39 -30.69,-108.72 z m -59.62,98.75 c 3.89,0.01 7.01,3.17 7.01,7.06 l -0.05,47.21 c -0.01,3.89 -3.14,7.02 -7.03,7.01 L 418.09,405 c -3.89,-0.01 -7.02,-3.17 -7.01,-7.06 l 0.05,-47.22 c 0.01,-3.89 3.14,-7.01 7.02,-7.01 z M 283.01,708.2 c 15.51,0.05 28.03,12.65 27.98,28.15 -0.05,15.5 -12.65,28.05 -28.15,28.01 -15.5,-0.05 -28.06,-12.68 -28.01,-28.19 0.05,-15.5 12.68,-28.02 28.18,-27.97 z"
         style="fill:none;stroke:#f21944"
         id="path5132"
         inkscape:connector-curvature="0" />
    </clipPath>
    <clipPath
       clipPathUnits="userSpaceOnUse"
       id="clipPath5259">
      <path
         d="m 407.31,251.56 c -13.17,2.47 -22.13,13.46 -27.64,24.92 -13.58,22.73 -26.25,46.19 -42.79,66.86 6.32,1.35 13.85,-0.71 20.56,0.54 10.96,1.43 18.91,-7.68 28.21,-11.9 7.52,-4.36 15.05,-8.72 22.57,-13.07 -3.78,-4.42 -2.94,-10.42 -1.25,-15.35 0.85,-17.26 0.26,-34.98 0.34,-52 z"
         style="fill:none;stroke:#ffffff;stroke-width:2"
         id="path5261"
         inkscape:connector-curvature="0" />
    </clipPath>
  </defs>
  <sodipodi:namedview
     id="base"
     bordercolor="#666666"
     inkscape:pageshadow="2"
     guidetolerance="10"
     pagecolor="#ffffff"
     gridtolerance="10000"
     inkscape:window-height="1018"
     inkscape:zoom="1"
     objecttolerance="10"
     showgrid="false"
     borderopacity="1.0"
     inkscape:current-layer="layer1"
     inkscape:cx="-5.531667"
     inkscape:cy="259.40811"
     inkscape:window-y="-8"
     inkscape:window-x="-8"
     inkscape:window-width="1920"
     inkscape:pageopacity="0.0"
     inkscape:document-units="px"
     inkscape:window-maximized="1"
     fit-margin-top="0"
     fit-margin-left="0"
     fit-margin-right="0"
     fit-margin-bottom="0" />
  <g
     id="layer1"
     inkscape:label="01"
     inkscape:groupmode="layer"
     transform="translate(1.2675216,0.88249608)">
    <path
       style="fill:#333333;fill-opacity:1;stroke-width:1.32689095"
       d="m 330.84882,19.767304 c 0.57332,2.069204 0.87683,4.213389 0.87414,6.412574 l -0.0315,25.803969 14.38401,1.278945 1.88275,50.530718 c 10.93235,-3.3171 15.45688,-5.434591 18.93993,-23.821047 3.57158,-18.844632 18.61736,-59.044912 -36.04926,-60.205159 z"
       id="rect6387"
       inkscape:connector-curvature="0" />
    <path
       style="fill:#333333;fill-opacity:1;stroke-width:1.9098475"
       d="m 196.76945,26.819348 c -5.82826,-0.006 -10.52897,6.239031 -10.54033,14.002538 -0.0114,7.763507 4.67091,14.01851 10.49916,14.024495 l 51.02062,0.05215 0.0343,-28.027035 z"
       id="rect6385"
       inkscape:connector-curvature="0" />
    <path
       style="fill:#333333;stroke-width:1.32689095"
       d="M 289.7867,-0.88245599 C 268.45602,-0.9085926 251.2676,11.847434 251.24816,27.718179 L 251.20837,60.469897 22.788886,60.191332 C 10.687651,60.176507 0.9243358,68.058943 0.91232308,77.864672 0.90030961,87.670376 10.643737,95.538256 22.744974,95.553095 l 252.557526,0.308753 58.4706,11.285462 9.42469,-44.52708 -14.98233,-2.684138 0.0384,-32.123231 c 0.0194,-15.870745 -17.13653,-28.66918743 -38.46721,-28.69531699 z m -14.35108,21.83127499 8.87439,0.01098 c 3.88366,0.0048 7.00602,3.134067 7.00126,7.017735 l -0.0302,24.483859 c -0.004,3.883662 -3.13544,7.006023 -7.0191,7.001267 l -8.87303,-0.01098 c -3.88367,-0.0048 -7.00741,-3.134067 -7.00265,-7.017736 l 0.0302,-24.483851 c 0.004,-3.883668 3.13543,-7.00603 7.01911,-7.001274 z M 17.42884,70.175895 c 4.81661,0.0056 8.699808,3.474278 8.694637,7.720335 -0.0052,4.246046 -3.897238,7.664572 -8.713849,7.658576 -4.81661,-0.006 -8.6998082,-3.434488 -8.6946371,-7.680535 0.00517,-4.246049 3.8972381,-7.704376 8.7138491,-7.698376 z"
       id="rect6158"
       inkscape:connector-curvature="0" />
    <rect
       style="opacity:1;fill:#333333;fill-opacity:1;stroke:none;stroke-width:6.06340647;stroke-linecap:round;stroke-linejoin:round;stroke-miterlimit:4;stroke-dasharray:24.25362586, 12.12681292;stroke-dashoffset:0;stroke-opacity:1"
       id="rect1503"
       width="17.874247"
       height="31.917652"
       x="270.97528"
       y="24.2111"
       ry="5.2107329" />
  </g>
  <g
     inkscape:groupmode="layer"
     id="layer2"
     inkscape:label="02"
     style="display:inline"
     transform="translate(1.2675216,0.88249608)">
    <path
       d="m 336.30852,241.55544 c -20.03198,-1.10347 -27.3058,19.19059 -40.28862,20.87184 -77.19788,0.0612 -154.39576,0.12778 -231.593639,0.19249 -6.958584,-0.17891 -14.057294,-3.84898 -18.541295,-6.99835 -7.609512,-5.34459 -15.69548,-8.65191 -23.501787,-7.56375 -12.250239,2.44863 -21.2738016,12.56633 -23.5866774,24.82467 -0.2355403,1.2461 0.1878871,2.52259 1.12088038,3.38371 0.93294891,0.87125 2.24408722,1.18531 3.46991992,0.851 6.3543797,-1.80132 12.7815581,-2.80699 19.2499681,-4.12281 4.178748,2.47237 6.009507,11.58129 4.968878,16.15828 -6.700013,1.75979 -13.365507,3.58484 -20.0722947,5.37949 -1.2003008,0.32419 -2.1579733,1.22584 -2.5471001,2.41115 -0.3892253,1.17517 -0.1575345,2.47193 0.6161597,3.44449 8.4325401,8.65665 17.1714821,12.94901 28.8392131,10.9418 5.167,-1.28397 10.147232,-3.61218 13.361902,-6.63619 5.723939,-5.07555 11.450919,-10.47531 17.507149,-10.92107 77.527303,-0.24644 155.055493,0.19249 232.582403,0.19249 18.89432,4.29081 22.59183,20.805 45.17353,17.25287 13.05898,-3.49914 23.49526,-15.84416 25.86411,-27.16085 0.23301,-1.2461 -0.19248,-2.53272 -1.12452,-3.39384 -0.93204,-0.86113 -2.23893,-1.18532 -3.46476,-0.851 -7.06873,1.89317 -14.3003,3.12738 -21.4673,4.58928 -6.29612,-4.00821 -8.76521,-13.1458 -5.54158,-18.68131 7.43183,-1.93033 14.79494,-3.95129 22.22711,-5.94682 2.53237,-0.98347 3.45409,-3.86209 1.935,-5.85767 -0.30393,-0.37586 -0.58759,-0.67573 -0.83073,-0.95028 -10.03305,-7.90925 -14.54946,-10.9825 -24.35592,-11.40962 z"
       style="fill:#333333;fill-opacity:1;stroke-width:1.01308644"
       id="path3650"
       inkscape:connector-curvature="0"
       sodipodi:nodetypes="cccsccccccccccccccccccccccc" />
  </g>
  <g
     style="display:inline"
     inkscape:label="03"
     id="g1053"
     inkscape:groupmode="layer"
     transform="translate(1.2675216,0.88249608)">
    <path
       style="fill:#333333;fill-opacity:1;stroke-width:1.01308644"
       d="m 339.86573,333.61716 c -14.91129,0 -18.80755,3.4389 -27.0337,9.58558 -4.63812,3.46565 -9.67695,7.55921 -14.69421,9.58923 -0.7947,0.23885 -1.67468,0.29652 -2.40235,0.37537 -77.46229,0.019 -154.92417,0.19225 -232.386471,0.19225 -6.838973,-0.84933 -12.493401,-4.09175 -16.409912,-7.93579 -7.615535,-5.59118 -16.683167,-7.84188 -24.556274,-6.62658 -12.25024,2.44862 -21.2729401,12.5671 -23.5858159,24.82544 -0.2355403,1.24609 0.1876121,2.52267 1.12060544,3.38378 0.93294891,0.87126 2.24401596,1.18392 3.46984856,0.84961 6.3543795,-1.80131 12.9059799,-2.82601 19.3743899,-4.14184 3.869811,2.26685 7.146232,11.18143 4.844971,16.17736 l -6.903077,1.80359 c -4.293002,1.31541 -8.804372,2.40765 -13.1707761,3.57606 -1.2003007,0.32419 -2.1578701,1.22618 -2.546997,2.41149 -0.3892253,1.17518 -0.1566287,2.47166 0.6170654,3.44422 0.2505343,0.31406 0.5114779,0.60806 0.7598878,0.89172 4.2221829,4.12397 9.0455779,7.8163 13.8024909,9.21021 9.606377,2.81493 20.541113,0.67989 27.637938,-5.79529 5.723939,-5.07555 11.452316,-10.47648 17.508546,-10.92224 29.181135,-0.17464 202.59429,0.0401 231.7511,0.19409 h 0.0311 0.80017 c 7.39914,-0.0669 13.90238,5.61174 18.47717,10.16052 8.94262,7.10273 17.60503,8.58429 26.69495,7.09167 0.0304,-0.0101 0.0611,-0.021 0.0916,-0.0311 13.38287,-2.67455 27.1986,-9.95115 28.02978,-31.45569 0.83119,-21.50454 -11.21184,-36.51914 -31.32202,-36.85364 z m -4.28834,9.74305 16.75782,3.86352 10.35094,13.73291 -0.89537,17.17164 -11.72609,12.57933 -17.06725,2.10023 -14.42505,-9.36219 -5.03174,-16.4447 6.71631,-15.83129 z"
       id="path1051"
       inkscape:connector-curvature="0" />
  </g>
  <g
     inkscape:groupmode="layer"
     id="layer3"
     inkscape:label="04"
     transform="translate(1.2675216,0.88249608)">
    <path
       style="fill:#333333;fill-opacity:1;fill-rule:evenodd;stroke:none;stroke-width:2.44354367"
       d="m 356.24998,202.77754 -35.9182,-15.85679 -13.96332,31.38894 32.37414,-3.86692 c 7.65873,-0.90217 13.37224,-4.91882 17.50732,-11.6651 z"
       id="path5874"
       inkscape:connector-curvature="0"
       sodipodi:nodetypes="cccccc" />
    <path
       d="m 370.89702,169.8394 -34.54896,-15.23966 c -3.70966,-1.21642 -7.54103,3.1576 -9.72318,8.42694 l -24.70366,55.99897 C 283.14113,207.11396 262.73,190.36203 232.74888,191.42307 l -206.17201,6.43707 c -4.027588,0.13904 -7.682435,-0.0336 -11.397994,-1.67497 C 4.2734122,191.378 -0.68034282,178.63945 4.1311992,167.73599 c 3.53204,-8.00596 11.3549358,-13.0275 19.5722938,-12.88406 l 219.035247,3.51019 c 30.20718,0.54279 51.39438,-20.07906 76.73278,-31.28581 16.76557,-7.41952 54.03602,21.8476 51.4255,42.76309 z m -67.76401,8.48794 c 0.93065,-2.10663 -0.0268,-4.55473 -2.13217,-5.49082 l -25.54853,-11.3358 c -2.10663,-0.93065 -4.55298,0.007 -5.48363,2.11598 l -8.49393,19.16003 c -0.93065,2.10663 0.0268,4.56017 2.13217,5.49083 l 25.55391,11.33821 c 2.1067,0.93058 4.54761,-0.0134 5.48121,-2.11053 z m -262.553791,4.55997 c 3.707697,-8.40088 -0.09806,-18.20648 -8.49446,-21.90922 -8.395443,-3.70528 -18.217227,0.0926 -21.925474,8.4872 -3.7052168,8.39538 0.106749,18.22985 8.508905,21.93501 8.395368,3.70529 18.208228,-0.1162 21.911029,-8.51299 z"
       style="fill:#333333;fill-rule:evenodd;stroke:none;stroke-width:2.44354367"
       id="path5878"
       inkscape:connector-curvature="0"
       sodipodi:nodetypes="cccccccccccccccccccccccccc" />
    <rect
       style="opacity:1;fill:#333333;fill-opacity:1;stroke:none;stroke-width:42.80103302;stroke-linecap:round;stroke-linejoin:round;stroke-miterlimit:4;stroke-dasharray:171.20412688, 85.6020633;stroke-dashoffset:0;stroke-opacity:1"
       id="rect1493"
       width="22.6325"
       height="25.387758"
       x="38.655899"
       y="-344.05444"
       rx="5.0974097"
       transform="rotate(113.98178)" />
  </g>
  <metadata
     id="metadata19">
    <rdf:RDF>
      <cc:Work>
        <dc:format>image/svg+xml</dc:format>
        <dc:type
           rdf:resource="http://purl.org/dc/dcmitype/StillImage" />
        <cc:license
           rdf:resource="http://creativecommons.org/publicdomain/zero/1.0/" />
        <dc:publisher>
          <cc:Agent
             rdf:about="http://openclipart.org/">
            <dc:title>Openclipart</dc:title>
          </cc:Agent>
        </dc:publisher>
        <dc:title></dc:title>
        <dc:date>2011-08-31T09:50:45</dc:date>
        <dc:description>Monkey wrench for a penguin</dc:description>
        <dc:source>https://openclipart.org/detail/158701/plumbers-wrench-by-tuxwrench</dc:source>
        <dc:creator>
          <cc:Agent>
            <dc:title>tuxwrench</dc:title>
          </cc:Agent>
        </dc:creator>
        <dc:subject>
          <rdf:Bag>
            <rdf:li>monkeywrench</rdf:li>
            <rdf:li>plumber</rdf:li>
            <rdf:li>red</rdf:li>
            <rdf:li>wrench</rdf:li>
          </rdf:Bag>
        </dc:subject>
      </cc:Work>
      <cc:License
         rdf:about="http://creativecommons.org/publicdomain/zero/1.0/">
        <cc:permits
           rdf:resource="http://creativecommons.org/ns#Reproduction" />
        <cc:permits
           rdf:resource="http://creativecommons.org/ns#Distribution" />
        <cc:permits
           rdf:resource="http://creativecommons.org/ns#DerivativeWorks" />
      </cc:License>
    </rdf:RDF>
  </metadata>
</svg>
